#N canvas 1280 -1415 1280 1387 12;
#X obj 202 70 hsl 128 15 0 6 0 0 empty empty empty -2 -8 0 10 #fcfcfc
#000000 #000000 0 1;
#X obj 343 16 vsl 15 128 0 23 0 0 empty empty empty 0 -9 0 10 #fcfcfc
#000000 #000000 0 1;
#X floatatom 343 216 5 0 0 0 - - - 0;
#X obj 343 186 mod 24;
#X floatatom 199 215 5 0 0 0 - - - 0;
#X obj 199 186 mod 7;
#X obj 200 288 pack f f;
#X obj 300 241 t b f;
#X obj 108 522 print latticePos;
#X obj 233 411 +;
#X obj 220 339 unpack f f;
#X obj 274 379 * 7;
#X text 197 49 7 steps;
#X text 194 14 7 x 24 lattice;
#X text 366 12 24 steps;
#X obj 765 97 readsf-wrapper \$0 1 0.01;
#X obj 765 127 readsf-wrapper \$0 2 0.01;
#X obj 767 156 readsf-wrapper \$0 3 0.01;
#X obj 764 72 readsf-wrapper \$0 0 0.01;
#X text 668 15 from dynamic sample loading based on: https://github.com/giuliomoro/dynamic-load-files-Pd
- via https://forum.bela.io/d/709-reading-multiple-samples-and-cpu-overload
, f 76;
#X obj 782 253 t b b b;
#X obj 781 231 bng 15 250 50 0 empty empty empty 17 7 0 10 #fcfcfc
#000000 #000000;
#X msg 807 334 64;
#X text 730 278 This generates the dynamic loaders;
#X text 875 325 n voices;
#X obj 737 373 generate-dynamic-loaders \$0;
#X text 793 308 nOfFiles;
#X obj 781 206 loadbang;
#X text 730 288 every time the program is started;
#X msg 886 342 4;
#X obj 259 523 send \$0-trigger-playback;
#N canvas -1138 -979 1078 692 \$0-dynamic-loaders 0;
#X obj 0 40 receive 1009-trigger-playback;
#X obj 0 60 i;
#X obj 0 80 select 0 1 2 3 4 5 6 7 8 9 10 11 12 13 14 15 16 17 18 19
20 21 22 23 24 25 26 27 28 29 30 31 32 33 34 35 36 37 38 39 40 41 42
43 44 45 46 47 48 49 50 51 52 53 54 55 56 57 58 59 60 61 62 63;
#X obj 0 130 dynamic-load-file samples_test/sine0.wav 1009 0;
#X obj 10 151 dynamic-load-file samples_test/sine1.wav 1009 1;
#X obj 20 172 dynamic-load-file samples_test/sine2.wav 1009 2;
#X obj 30 193 dynamic-load-file samples_test/sine3.wav 1009 3;
#X obj 40 214 dynamic-load-file samples_test/sine4.wav 1009 0;
#X obj 50 235 dynamic-load-file samples_test/sine5.wav 1009 1;
#X obj 60 256 dynamic-load-file samples_test/sine6.wav 1009 2;
#X obj 70 277 dynamic-load-file samples_test/sine7.wav 1009 3;
#X obj 80 298 dynamic-load-file samples_test/sine8.wav 1009 0;
#X obj 90 319 dynamic-load-file samples_test/sine9.wav 1009 1;
#X obj 100 340 dynamic-load-file samples_test/sine10.wav 1009 2;
#X obj 110 361 dynamic-load-file samples_test/sine11.wav 1009 3;
#X obj 120 382 dynamic-load-file samples_test/sine12.wav 1009 0;
#X obj 130 403 dynamic-load-file samples_test/sine13.wav 1009 1;
#X obj 140 424 dynamic-load-file samples_test/sine14.wav 1009 2;
#X obj 150 445 dynamic-load-file samples_test/sine15.wav 1009 3;
#X obj 160 466 dynamic-load-file samples_test/sine16.wav 1009 0;
#X obj 170 487 dynamic-load-file samples_test/sine17.wav 1009 1;
#X obj 180 508 dynamic-load-file samples_test/sine18.wav 1009 2;
#X obj 190 529 dynamic-load-file samples_test/sine19.wav 1009 3;
#X obj 200 550 dynamic-load-file samples_test/sine20.wav 1009 0;
#X obj 210 571 dynamic-load-file samples_test/sine21.wav 1009 1;
#X obj 220 592 dynamic-load-file samples_test/sine22.wav 1009 2;
#X obj 230 613 dynamic-load-file samples_test/sine23.wav 1009 3;
#X obj 240 634 dynamic-load-file samples_test/sine24.wav 1009 0;
#X obj 250 655 dynamic-load-file samples_test/sine25.wav 1009 1;
#X obj 260 676 dynamic-load-file samples_test/sine26.wav 1009 2;
#X obj 270 697 dynamic-load-file samples_test/sine27.wav 1009 3;
#X obj 280 718 dynamic-load-file samples_test/sine28.wav 1009 0;
#X obj 290 739 dynamic-load-file samples_test/sine29.wav 1009 1;
#X obj 300 760 dynamic-load-file samples_test/sine30.wav 1009 2;
#X obj 310 781 dynamic-load-file samples_test/sine31.wav 1009 3;
#X obj 320 802 dynamic-load-file samples_test/sine32.wav 1009 0;
#X obj 330 823 dynamic-load-file samples_test/sine33.wav 1009 1;
#X obj 340 844 dynamic-load-file samples_test/sine34.wav 1009 2;
#X obj 350 865 dynamic-load-file samples_test/sine35.wav 1009 3;
#X obj 360 886 dynamic-load-file samples_test/sine36.wav 1009 0;
#X obj 370 907 dynamic-load-file samples_test/sine37.wav 1009 1;
#X obj 380 928 dynamic-load-file samples_test/sine38.wav 1009 2;
#X obj 390 949 dynamic-load-file samples_test/sine39.wav 1009 3;
#X obj 400 970 dynamic-load-file samples_test/sine40.wav 1009 0;
#X obj 410 991 dynamic-load-file samples_test/sine41.wav 1009 1;
#X obj 420 1012 dynamic-load-file samples_test/sine42.wav 1009 2;
#X obj 430 1033 dynamic-load-file samples_test/sine43.wav 1009 3;
#X obj 440 1054 dynamic-load-file samples_test/sine44.wav 1009 0;
#X obj 450 1075 dynamic-load-file samples_test/sine45.wav 1009 1;
#X obj 460 1096 dynamic-load-file samples_test/sine46.wav 1009 2;
#X obj 470 1117 dynamic-load-file samples_test/sine47.wav 1009 3;
#X obj 480 1138 dynamic-load-file samples_test/sine48.wav 1009 0;
#X obj 490 1159 dynamic-load-file samples_test/sine49.wav 1009 1;
#X obj 500 1180 dynamic-load-file samples_test/sine50.wav 1009 2;
#X obj 510 1201 dynamic-load-file samples_test/sine51.wav 1009 3;
#X obj 520 1222 dynamic-load-file samples_test/sine52.wav 1009 0;
#X obj 530 1243 dynamic-load-file samples_test/sine53.wav 1009 1;
#X obj 540 1264 dynamic-load-file samples_test/sine54.wav 1009 2;
#X obj 550 1285 dynamic-load-file samples_test/sine55.wav 1009 3;
#X obj 560 1306 dynamic-load-file samples_test/sine56.wav 1009 0;
#X obj 570 1327 dynamic-load-file samples_test/sine57.wav 1009 1;
#X obj 580 1348 dynamic-load-file samples_test/sine58.wav 1009 2;
#X obj 590 1369 dynamic-load-file samples_test/sine59.wav 1009 3;
#X obj 600 1390 dynamic-load-file samples_test/sine60.wav 1009 0;
#X obj 610 1411 dynamic-load-file samples_test/sine61.wav 1009 1;
#X obj 620 1432 dynamic-load-file samples_test/sine62.wav 1009 2;
#X obj 630 1453 dynamic-load-file samples_test/sine63.wav 1009 3;
#X connect 0 0 1 0;
#X connect 1 0 2 0;
#X connect 2 0 3 0;
#X connect 2 1 4 0;
#X connect 2 2 5 0;
#X connect 2 3 6 0;
#X connect 2 4 7 0;
#X connect 2 5 8 0;
#X connect 2 6 9 0;
#X connect 2 7 10 0;
#X connect 2 8 11 0;
#X connect 2 9 12 0;
#X connect 2 10 13 0;
#X connect 2 11 14 0;
#X connect 2 12 15 0;
#X connect 2 13 16 0;
#X connect 2 14 17 0;
#X connect 2 15 18 0;
#X connect 2 16 19 0;
#X connect 2 17 20 0;
#X connect 2 18 21 0;
#X connect 2 19 22 0;
#X connect 2 20 23 0;
#X connect 2 21 24 0;
#X connect 2 22 25 0;
#X connect 2 23 26 0;
#X connect 2 24 27 0;
#X connect 2 25 28 0;
#X connect 2 26 29 0;
#X connect 2 27 30 0;
#X connect 2 28 31 0;
#X connect 2 29 32 0;
#X connect 2 30 33 0;
#X connect 2 31 34 0;
#X connect 2 32 35 0;
#X connect 2 33 36 0;
#X connect 2 34 37 0;
#X connect 2 35 38 0;
#X connect 2 36 39 0;
#X connect 2 37 40 0;
#X connect 2 38 41 0;
#X connect 2 39 42 0;
#X connect 2 40 43 0;
#X connect 2 41 44 0;
#X connect 2 42 45 0;
#X connect 2 43 46 0;
#X connect 2 44 47 0;
#X connect 2 45 48 0;
#X connect 2 46 49 0;
#X connect 2 47 50 0;
#X connect 2 48 51 0;
#X connect 2 49 52 0;
#X connect 2 50 53 0;
#X connect 2 51 54 0;
#X connect 2 52 55 0;
#X connect 2 53 56 0;
#X connect 2 54 57 0;
#X connect 2 55 58 0;
#X connect 2 56 59 0;
#X connect 2 57 60 0;
#X connect 2 58 61 0;
#X connect 2 59 62 0;
#X connect 2 60 63 0;
#X connect 2 61 64 0;
#X connect 2 62 65 0;
#X connect 2 63 66 0;
#X restore 258 552 pd \$0-dynamic-loaders;
#X obj 229 466 change;
#X connect 0 0 5 0;
#X connect 1 0 3 0;
#X connect 2 0 7 0;
#X connect 3 0 2 0;
#X connect 4 0 6 0;
#X connect 5 0 4 0;
#X connect 6 0 10 0;
#X connect 7 0 6 0;
#X connect 7 1 6 1;
#X connect 9 0 32 0;
#X connect 10 0 9 0;
#X connect 10 1 11 0;
#X connect 11 0 9 1;
#X connect 20 0 25 0;
#X connect 20 1 22 0;
#X connect 20 2 29 0;
#X connect 21 0 20 0;
#X connect 22 0 25 1;
#X connect 27 0 21 0;
#X connect 29 0 25 2;
#X connect 32 0 30 0;
#X connect 32 0 8 0;
