#N canvas 1253 -1415 1279 1369 12;
#X obj 178 68 hsl 128 15 0 6 0 0 empty empty empty -2 -8 0 10 #fcfcfc
#000000 #000000 0 1;
#X obj 343 16 vsl 15 128 0 23 0 0 empty empty empty 0 -9 0 10 #fcfcfc
#000000 #000000 0 1;
#X floatatom 343 216 5 0 0 0 - - - 0;
#X obj 343 186 mod 24;
#X floatatom 199 215 5 0 0 0 - - - 0;
#X obj 199 186 mod 7;
#X obj 200 288 pack f f;
#X obj 300 241 t b f;
#X obj 234 1001 print latticePos;
#X obj 233 411 +;
#X obj 220 339 unpack f f;
#X obj 274 379 * 7;
#X text 197 49 7 steps;
#X text 194 14 7 x 24 lattice;
#X text 366 12 24 steps;
#X text 588 1106 from dynamic sample loading based on: https://github.com/giuliomoro/dynamic-load-files-Pd
- via https://forum.bela.io/d/709-reading-multiple-samples-and-cpu-overload
, f 76;
#X obj 591 1218 t b b b;
#X obj 590 1196 bng 15 250 50 0 empty empty empty 17 7 0 10 #fcfcfc
#000000 #000000;
#X msg 616 1299 64;
#X text 539 1243 This generates the dynamic loaders;
#X text 684 1290 n voices;
#X obj 546 1338 generate-dynamic-loaders \$0;
#X text 602 1273 nOfFiles;
#X obj 590 1171 loadbang;
#X text 539 1253 every time the program is started;
#X obj 382 1070 send \$0-trigger-playback;
#N canvas -1138 -979 1078 692 \$0-dynamic-loaders 0;
#X obj 0 40 receive 2667-trigger-playback;
#X obj 0 60 i;
#X obj 0 80 select 0 1 2 3 4 5 6 7 8 9 10 11 12 13 14 15 16 17 18 19
20 21 22 23 24 25 26 27 28 29 30 31 32 33 34 35 36 37 38 39 40 41 42
43 44 45 46 47 48 49 50 51 52 53 54 55 56 57 58 59 60 61 62 63;
#X obj 0 130 dynamic-load-file samples_test/sine0.wav 2667 0;
#X obj 10 151 dynamic-load-file samples_test/sine1.wav 2667 1;
#X obj 20 172 dynamic-load-file samples_test/sine2.wav 2667 2;
#X obj 30 193 dynamic-load-file samples_test/sine3.wav 2667 3;
#X obj 40 214 dynamic-load-file samples_test/sine4.wav 2667 4;
#X obj 50 235 dynamic-load-file samples_test/sine5.wav 2667 5;
#X obj 60 256 dynamic-load-file samples_test/sine6.wav 2667 6;
#X obj 70 277 dynamic-load-file samples_test/sine7.wav 2667 7;
#X obj 80 298 dynamic-load-file samples_test/sine8.wav 2667 8;
#X obj 90 319 dynamic-load-file samples_test/sine9.wav 2667 9;
#X obj 100 340 dynamic-load-file samples_test/sine10.wav 2667 10;
#X obj 110 361 dynamic-load-file samples_test/sine11.wav 2667 11;
#X obj 120 382 dynamic-load-file samples_test/sine12.wav 2667 12;
#X obj 130 403 dynamic-load-file samples_test/sine13.wav 2667 13;
#X obj 140 424 dynamic-load-file samples_test/sine14.wav 2667 14;
#X obj 150 445 dynamic-load-file samples_test/sine15.wav 2667 15;
#X obj 160 466 dynamic-load-file samples_test/sine16.wav 2667 0;
#X obj 170 487 dynamic-load-file samples_test/sine17.wav 2667 1;
#X obj 180 508 dynamic-load-file samples_test/sine18.wav 2667 2;
#X obj 190 529 dynamic-load-file samples_test/sine19.wav 2667 3;
#X obj 200 550 dynamic-load-file samples_test/sine20.wav 2667 4;
#X obj 210 571 dynamic-load-file samples_test/sine21.wav 2667 5;
#X obj 220 592 dynamic-load-file samples_test/sine22.wav 2667 6;
#X obj 230 613 dynamic-load-file samples_test/sine23.wav 2667 7;
#X obj 240 634 dynamic-load-file samples_test/sine24.wav 2667 8;
#X obj 250 655 dynamic-load-file samples_test/sine25.wav 2667 9;
#X obj 260 676 dynamic-load-file samples_test/sine26.wav 2667 10;
#X obj 270 697 dynamic-load-file samples_test/sine27.wav 2667 11;
#X obj 280 718 dynamic-load-file samples_test/sine28.wav 2667 12;
#X obj 290 739 dynamic-load-file samples_test/sine29.wav 2667 13;
#X obj 300 760 dynamic-load-file samples_test/sine30.wav 2667 14;
#X obj 310 781 dynamic-load-file samples_test/sine31.wav 2667 15;
#X obj 320 802 dynamic-load-file samples_test/sine32.wav 2667 0;
#X obj 330 823 dynamic-load-file samples_test/sine33.wav 2667 1;
#X obj 340 844 dynamic-load-file samples_test/sine34.wav 2667 2;
#X obj 350 865 dynamic-load-file samples_test/sine35.wav 2667 3;
#X obj 360 886 dynamic-load-file samples_test/sine36.wav 2667 4;
#X obj 370 907 dynamic-load-file samples_test/sine37.wav 2667 5;
#X obj 380 928 dynamic-load-file samples_test/sine38.wav 2667 6;
#X obj 390 949 dynamic-load-file samples_test/sine39.wav 2667 7;
#X obj 400 970 dynamic-load-file samples_test/sine40.wav 2667 8;
#X obj 410 991 dynamic-load-file samples_test/sine41.wav 2667 9;
#X obj 420 1012 dynamic-load-file samples_test/sine42.wav 2667 10;
#X obj 430 1033 dynamic-load-file samples_test/sine43.wav 2667 11;
#X obj 440 1054 dynamic-load-file samples_test/sine44.wav 2667 12;
#X obj 450 1075 dynamic-load-file samples_test/sine45.wav 2667 13;
#X obj 460 1096 dynamic-load-file samples_test/sine46.wav 2667 14;
#X obj 470 1117 dynamic-load-file samples_test/sine47.wav 2667 15;
#X obj 480 1138 dynamic-load-file samples_test/sine48.wav 2667 0;
#X obj 490 1159 dynamic-load-file samples_test/sine49.wav 2667 1;
#X obj 500 1180 dynamic-load-file samples_test/sine50.wav 2667 2;
#X obj 510 1201 dynamic-load-file samples_test/sine51.wav 2667 3;
#X obj 520 1222 dynamic-load-file samples_test/sine52.wav 2667 4;
#X obj 530 1243 dynamic-load-file samples_test/sine53.wav 2667 5;
#X obj 540 1264 dynamic-load-file samples_test/sine54.wav 2667 6;
#X obj 550 1285 dynamic-load-file samples_test/sine55.wav 2667 7;
#X obj 560 1306 dynamic-load-file samples_test/sine56.wav 2667 8;
#X obj 570 1327 dynamic-load-file samples_test/sine57.wav 2667 9;
#X obj 580 1348 dynamic-load-file samples_test/sine58.wav 2667 10;
#X obj 590 1369 dynamic-load-file samples_test/sine59.wav 2667 11;
#X obj 600 1390 dynamic-load-file samples_test/sine60.wav 2667 12;
#X obj 610 1411 dynamic-load-file samples_test/sine61.wav 2667 13;
#X obj 620 1432 dynamic-load-file samples_test/sine62.wav 2667 14;
#X obj 630 1453 dynamic-load-file samples_test/sine63.wav 2667 15;
#X connect 0 0 1 0;
#X connect 1 0 2 0;
#X connect 2 0 3 0;
#X connect 2 1 4 0;
#X connect 2 2 5 0;
#X connect 2 3 6 0;
#X connect 2 4 7 0;
#X connect 2 5 8 0;
#X connect 2 6 9 0;
#X connect 2 7 10 0;
#X connect 2 8 11 0;
#X connect 2 9 12 0;
#X connect 2 10 13 0;
#X connect 2 11 14 0;
#X connect 2 12 15 0;
#X connect 2 13 16 0;
#X connect 2 14 17 0;
#X connect 2 15 18 0;
#X connect 2 16 19 0;
#X connect 2 17 20 0;
#X connect 2 18 21 0;
#X connect 2 19 22 0;
#X connect 2 20 23 0;
#X connect 2 21 24 0;
#X connect 2 22 25 0;
#X connect 2 23 26 0;
#X connect 2 24 27 0;
#X connect 2 25 28 0;
#X connect 2 26 29 0;
#X connect 2 27 30 0;
#X connect 2 28 31 0;
#X connect 2 29 32 0;
#X connect 2 30 33 0;
#X connect 2 31 34 0;
#X connect 2 32 35 0;
#X connect 2 33 36 0;
#X connect 2 34 37 0;
#X connect 2 35 38 0;
#X connect 2 36 39 0;
#X connect 2 37 40 0;
#X connect 2 38 41 0;
#X connect 2 39 42 0;
#X connect 2 40 43 0;
#X connect 2 41 44 0;
#X connect 2 42 45 0;
#X connect 2 43 46 0;
#X connect 2 44 47 0;
#X connect 2 45 48 0;
#X connect 2 46 49 0;
#X connect 2 47 50 0;
#X connect 2 48 51 0;
#X connect 2 49 52 0;
#X connect 2 50 53 0;
#X connect 2 51 54 0;
#X connect 2 52 55 0;
#X connect 2 53 56 0;
#X connect 2 54 57 0;
#X connect 2 55 58 0;
#X connect 2 56 59 0;
#X connect 2 57 60 0;
#X connect 2 58 61 0;
#X connect 2 59 62 0;
#X connect 2 60 63 0;
#X connect 2 61 64 0;
#X connect 2 62 65 0;
#X connect 2 63 66 0;
#X restore 417 1170 pd \$0-dynamic-loaders;
#X obj 229 466 change;
#X obj 524 77 hsl 256 15 0 7 0 0 empty empty empty -2 -8 0 10 #fcfcfc
#000000 #000000 0 1;
#X text 521 28 Seven one-sided tetrominoes (for now \, may go for the
19 fixed tetrominos): I O T J L S Z https://en.wikipedia.org/wiki/Tetromino
https://mathworld.wolfram.com/Tetromino.html, f 75;
#X obj 797 1189 readsf-wrapper \$0 1 0.01;
#X obj 797 1219 readsf-wrapper \$0 2 0.01;
#X obj 799 1248 readsf-wrapper \$0 3 0.01;
#X obj 799 1278 readsf-wrapper \$0 4 0.01;
#X obj 801 1309 readsf-wrapper \$0 5 0.01;
#X obj 801 1339 readsf-wrapper \$0 6 0.01;
#X obj 803 1368 readsf-wrapper \$0 7 0.01;
#X obj 796 1164 readsf-wrapper \$0 0 0.01;
#X obj 802 1394 readsf-wrapper \$0 8 0.01;
#X obj 803 1419 readsf-wrapper \$0 9 0.01;
#X obj 803 1449 readsf-wrapper \$0 10 0.01;
#X obj 805 1478 readsf-wrapper \$0 11 0.01;
#X obj 805 1508 readsf-wrapper \$0 12 0.01;
#X obj 807 1539 readsf-wrapper \$0 13 0.01;
#X obj 807 1569 readsf-wrapper \$0 14 0.01;
#X obj 809 1598 readsf-wrapper \$0 15 0.01;
#X obj 1056 1164 readsf-wrapper \$0 16 0.01;
#X obj 1057 1189 readsf-wrapper \$0 17 0.01;
#X obj 1057 1219 readsf-wrapper \$0 18 0.01;
#X obj 1059 1248 readsf-wrapper \$0 19 0.01;
#X obj 1059 1278 readsf-wrapper \$0 20 0.01;
#X obj 1061 1309 readsf-wrapper \$0 21 0.01;
#X obj 1061 1339 readsf-wrapper \$0 22 0.01;
#X obj 1063 1368 readsf-wrapper \$0 23 0.01;
#X obj 1062 1394 readsf-wrapper \$0 24 0.01;
#X obj 1063 1419 readsf-wrapper \$0 25 0.01;
#X obj 1063 1449 readsf-wrapper \$0 26 0.01;
#X obj 1065 1478 readsf-wrapper \$0 27 0.01;
#X obj 1065 1508 readsf-wrapper \$0 28 0.01;
#X obj 1067 1539 readsf-wrapper \$0 29 0.01;
#X obj 1067 1569 readsf-wrapper \$0 30 0.01;
#X obj 1069 1598 readsf-wrapper \$0 31 0.01;
#X msg 695 1307 16;
#X obj 1216 298 route 0 1 2 3 4 5 6 7;
#X obj 521 127 change;
#X obj 521 97 mod 8;
#X obj 1053 571 r oneNote;
#X obj 1159 576 r tetro_I;
#X obj 1269 576 r tetro_O;
#X obj 1389 576 r tetro_T;
#X obj 1501 576 r tetro_J;
#X obj 1609 576 r tetro_L;
#X obj 1723 576 r tetro_S;
#X obj 1833 576 r tetro_Z;
#X obj 1053 602 print oneNote;
#X obj 1159 602 print tetro_I;
#X obj 1269 602 print tetro_O;
#X obj 1389 602 print tetro_T;
#X obj 1501 602 print tetro_J;
#X obj 1609 602 print tetro_L;
#X obj 1723 602 print tetro_S;
#X obj 1833 602 print tetro_Z;
#X obj 1217 330 s oneNote;
#X obj 1239 359 s tetro_I;
#X obj 1255 385 s tetro_O;
#X obj 1280 412 s tetro_T;
#X obj 1302 440 s tetro_J;
#X obj 1320 469 s tetro_L;
#X obj 1345 500 s tetro_S;
#X obj 1364 532 s tetro_Z;
#X obj 43 296 sig~;
#X obj 50 337 sfalib/deltasig~;
#X obj 14 437 print speed;
#X obj 25 8 loadbang;
#X msg 25 61 1;
#X obj 14 405 snapshot~;
#X obj 31 37 bng 15 250 50 0 empty empty empty 17 7 0 10 #fcfcfc #000000
#000000;
#X obj 39 375 abs~;
#X obj 25 85 metro 1000;
#X obj 1152 231 f;
#X obj 1128 300 print f;
#X obj 1048 361 trigger;
#X obj 238 633 spigot;
#X obj 277 604 == 1;
#X text 489 971 clipping on lattice boundaries;
#X obj 43 659 s tPB;
#X obj 261 697 s tPB;
#X obj 386 939 r tPB;
#X obj 209 671 - 1;
#X obj 209 697 s tPB;
#X obj 308 697 s tPB;
#X obj 308 671 + 1;
#X obj 357 697 s tPB;
#X obj 382 1024 spigot;
#X obj 436 973 > 0;
#X obj 437 997 < 168;
#X obj 1071 197 bng 15 250 50 0 empty empty empty 17 7 0 10 #fcfcfc
#000000 #000000;
#X obj 521 151 s tetro;
#X obj 96 578 r tetro;
#X obj 229 490 s latt;
#X obj 18 580 r latt;
#X text 18 556 one note;
#X obj 277 578 r tetro;
#X obj 211 580 r latt;
#X text 211 556 I tetromino;
#X obj 481 633 spigot;
#X obj 520 578 r tetro;
#X obj 454 580 r latt;
#X text 454 556 O tetromino;
#X obj 520 604 == 2;
#X obj 506 697 s tPB;
#X obj 453 671 - 7;
#X obj 453 697 s tPB;
#X obj 555 671 + 1;
#X obj 555 697 s tPB;
#X obj 605 697 s tPB;
#X obj 458 29 loadbang;
#X obj 357 671 + 2;
#X obj 605 671 - 6;
#X obj 706 633 spigot;
#X obj 745 578 r tetro;
#X obj 679 580 r latt;
#X obj 731 697 s tPB;
#X obj 678 697 s tPB;
#X obj 780 697 s tPB;
#X obj 830 697 s tPB;
#X text 679 556 T tetromino;
#X obj 745 604 == 3;
#X obj 678 671 - 1;
#X obj 780 671 + 1;
#X obj 830 671 - 7;
#X obj 47 822 spigot;
#X obj 86 766 r tetro;
#X obj 20 766 r latt;
#X obj 72 879 s tPB;
#X obj 19 879 s tPB;
#X obj 121 879 s tPB;
#X obj 171 879 s tPB;
#X obj 19 855 - 1;
#X text 20 744 J tetromino;
#X obj 43 633 spigot 0;
#X obj 96 604 == 0;
#X obj 86 790 == 4;
#X obj 121 855 + 7;
#X obj 171 855 + 14;
#X obj 257 822 spigot;
#X obj 296 766 r tetro;
#X obj 230 766 r latt;
#X obj 233 879 s tPB;
#X obj 281 879 s tPB;
#X obj 331 879 s tPB;
#X obj 381 879 s tPB;
#X obj 331 855 + 7;
#X obj 381 855 + 14;
#X text 230 744 L tetromino;
#X obj 281 855 + 1;
#X obj 296 790 == 5;
#X obj 464 822 spigot;
#X obj 503 766 r tetro;
#X obj 437 766 r latt;
#X obj 492 879 s tPB;
#X obj 444 879 s tPB;
#X obj 538 879 s tPB;
#X obj 588 879 s tPB;
#X obj 538 855 + 7;
#X text 437 744 S tetromino;
#X obj 444 855 - 1;
#X obj 588 855 + 8;
#X obj 664 822 spigot;
#X obj 703 766 r tetro;
#X obj 637 766 r latt;
#X obj 646 879 s tPB;
#X obj 691 879 s tPB;
#X obj 738 879 s tPB;
#X obj 788 879 s tPB;
#X text 637 744 Z tetromino;
#X obj 691 855 + 1;
#X obj 738 855 + 6;
#X obj 788 855 + 7;
#X obj 503 790 == 6;
#X obj 703 790 == 7;
#X obj 611 171 print change;
#X msg 459 75 0;
#X obj 465 54 bng 15 250 50 0 empty empty empty 17 7 0 10 #fcfcfc #000000
#000000;
#X connect 0 0 5 0;
#X connect 1 0 3 0;
#X connect 2 0 7 0;
#X connect 3 0 2 0;
#X connect 4 0 6 0;
#X connect 5 0 4 0;
#X connect 6 0 10 0;
#X connect 7 0 6 0;
#X connect 7 1 6 1;
#X connect 9 0 27 0;
#X connect 10 0 9 0;
#X connect 10 1 11 0;
#X connect 11 0 9 1;
#X connect 16 0 21 0;
#X connect 16 1 18 0;
#X connect 16 2 62 0;
#X connect 17 0 16 0;
#X connect 18 0 21 1;
#X connect 23 0 17 0;
#X connect 27 0 119 0;
#X connect 28 0 65 0;
#X connect 62 0 21 2;
#X connect 63 0 82 0;
#X connect 63 1 83 0;
#X connect 63 2 84 0;
#X connect 63 3 85 0;
#X connect 63 4 86 0;
#X connect 63 5 87 0;
#X connect 63 6 88 0;
#X connect 63 7 89 0;
#X connect 64 0 117 0;
#X connect 64 0 201 0;
#X connect 65 0 64 0;
#X connect 66 0 74 0;
#X connect 67 0 75 0;
#X connect 68 0 76 0;
#X connect 69 0 77 0;
#X connect 70 0 78 0;
#X connect 71 0 79 0;
#X connect 72 0 80 0;
#X connect 73 0 81 0;
#X connect 90 0 97 0;
#X connect 93 0 96 0;
#X connect 94 0 98 0;
#X connect 95 0 92 0;
#X connect 96 0 94 0;
#X connect 97 0 95 0;
#X connect 99 0 63 0;
#X connect 99 0 100 0;
#X connect 101 0 99 0;
#X connect 102 0 106 0;
#X connect 102 0 108 0;
#X connect 102 0 111 0;
#X connect 102 0 137 0;
#X connect 103 0 102 1;
#X connect 107 0 8 0;
#X connect 107 0 113 0;
#X connect 107 0 114 0;
#X connect 108 0 109 0;
#X connect 111 0 110 0;
#X connect 113 0 25 0;
#X connect 114 0 115 0;
#X connect 115 0 113 1;
#X connect 116 0 99 0;
#X connect 118 0 161 0;
#X connect 120 0 160 0;
#X connect 122 0 103 0;
#X connect 123 0 102 0;
#X connect 125 0 130 0;
#X connect 125 0 131 0;
#X connect 125 0 133 0;
#X connect 125 0 138 0;
#X connect 126 0 129 0;
#X connect 127 0 125 0;
#X connect 129 0 125 1;
#X connect 131 0 132 0;
#X connect 133 0 134 0;
#X connect 136 0 203 0;
#X connect 137 0 112 0;
#X connect 138 0 135 0;
#X connect 139 0 142 0;
#X connect 139 0 148 0;
#X connect 139 0 149 0;
#X connect 139 0 150 0;
#X connect 140 0 147 0;
#X connect 141 0 139 0;
#X connect 147 0 139 1;
#X connect 148 0 143 0;
#X connect 149 0 144 0;
#X connect 150 0 145 0;
#X connect 151 0 154 0;
#X connect 151 0 158 0;
#X connect 151 0 163 0;
#X connect 151 0 164 0;
#X connect 152 0 162 0;
#X connect 153 0 151 0;
#X connect 158 0 155 0;
#X connect 160 0 105 0;
#X connect 161 0 160 1;
#X connect 162 0 151 1;
#X connect 163 0 156 0;
#X connect 164 0 157 0;
#X connect 165 0 168 0;
#X connect 165 0 172 0;
#X connect 165 0 173 0;
#X connect 165 0 175 0;
#X connect 166 0 176 0;
#X connect 167 0 165 0;
#X connect 172 0 170 0;
#X connect 173 0 171 0;
#X connect 175 0 169 0;
#X connect 176 0 165 1;
#X connect 177 0 180 0;
#X connect 177 0 184 0;
#X connect 177 0 186 0;
#X connect 177 0 187 0;
#X connect 178 0 199 0;
#X connect 179 0 177 0;
#X connect 184 0 182 0;
#X connect 186 0 181 0;
#X connect 187 0 183 0;
#X connect 188 0 191 0;
#X connect 188 0 196 0;
#X connect 188 0 197 0;
#X connect 188 0 198 0;
#X connect 189 0 200 0;
#X connect 190 0 188 0;
#X connect 196 0 192 0;
#X connect 197 0 193 0;
#X connect 198 0 194 0;
#X connect 199 0 177 1;
#X connect 200 0 188 1;
#X connect 202 0 117 0;
#X connect 203 0 202 0;
