#N canvas 419 -1353 1396 717 12;
#X obj 637 259 hsl 128 15 0 1 0 0 empty empty empty -2 -8 0 10 #fcfcfc
#000000 #000000 0 1;
#X obj 629 348 mod 10;
#X obj 590 620 soundfiler;
#X obj 590 644 s sampleLength1;
#X obj 718 617 print read file;
#N canvas 0 22 450 278 (subpatch) 0;
#X array sample-table-1 4800 float 2;
#X coords 0 1 4800 -1 200 140 1;
#X restore 1018 399 graph;
#X obj 268 225 *~;
#X obj 356 107 r sampleLength1;
#X obj 268 184 phasor~;
#X obj 268 159 *~;
#X obj 268 515 dac~ 1 2;
#X msg 266 115 1;
#X obj 268 260 tabread4~ sample-table-1;
#X msg 228 115 0;
#X obj 818 293 f;
#X obj 803 260 bng 15 250 50 0 empty empty empty 17 7 0 10 #fcfcfc
#000000 #000000;
#X msg 849 264 0;
#X obj 818 317 + 1;
#X obj 692 532 pack f f;
#X obj 744 370 % 2;
#X text 779 369 number of sample packs;
#X text 659 432 midi note offset;
#X obj 624 432 + 76;
#X obj 628 289 * 9;
#X obj 336 433 hsl 128 15 0 10000 0 0 empty empty empty -2 -8 0 10
#fcfcfc #000000 #000000 0 1;
#X obj 718 112 adc~ 3;
#X obj 1016 267 loadbang;
#X obj 1016 318 snapshot~;
#X obj 1016 297 metro 1000;
#X obj 617 205 snapshot~;
#X obj 566 95 tgl 15 0 empty empty empty 17 7 0 10 #fcfcfc #000000
#000000 0 1;
#X obj 265 76 loadbang;
#X msg 647 576 read -resize samples\$2/midi\$1.wav sample-table-1,
f 70;
#X obj 584 61 loadbang;
#X obj 640 478 change;
#X obj 531 524 print offset;
#X obj 268 494 *~ 0.1;
#X obj 572 121 metro 20;
#X obj 292 311 adc~ 4;
#X obj 1016 343 print ANALOG-INPUT-3;
#X obj 297 346 lop~ 10;
#X obj 314 133 expr 48000/$f1;
#X obj 61 557 dac~ 8 9 10, f 25;
#X obj 36 478 sfalib/scalesiglin~ -0.2 0.2 0 1;
#X obj 1027 75 loadbang;
#X msg 1027 99 in 18 \, out 17;
#X obj 1027 123 s bela_setDigital;
#X obj 872 94 r bela_digitalIn18;
#X obj 872 149 tgl 15 0 empty empty empty 17 7 0 10 #fcfcfc #000000
#000000 0 1;
#X obj 872 192 s bela_digitalOut17;
#X obj 943 160 print myButton:;
#X text 424 134 TODO detect s-rate;
#X obj 818 425 print samplePack;
#X obj 825 193 sel 1;
#X obj 268 431 *~;
#X obj 309 392 sfalib/scalesiglog~ 0 0.4 0 1 1;
#X text 347 311 volume / filter ctrl;
#X text 687 479 only load wav file if value has changed;
#X connect 1 0 22 0;
#X connect 2 0 3 0;
#X connect 6 0 12 0;
#X connect 7 0 6 1;
#X connect 7 0 41 0;
#X connect 8 0 6 0;
#X connect 9 0 8 0;
#X connect 11 0 9 0;
#X connect 12 0 54 0;
#X connect 13 0 9 0;
#X connect 14 0 17 0;
#X connect 16 0 14 1;
#X connect 17 0 14 1;
#X connect 17 0 19 0;
#X connect 18 0 32 0;
#X connect 19 0 52 0;
#X connect 19 0 18 1;
#X connect 22 0 34 0;
#X connect 23 0 1 0;
#X connect 25 0 29 0;
#X connect 27 0 39 0;
#X connect 28 0 27 0;
#X connect 29 0 23 0;
#X connect 30 0 37 0;
#X connect 31 0 11 0;
#X connect 32 0 2 0;
#X connect 32 0 4 0;
#X connect 33 0 30 0;
#X connect 34 0 18 0;
#X connect 34 0 35 0;
#X connect 36 0 10 0;
#X connect 36 0 10 1;
#X connect 37 0 29 0;
#X connect 38 0 40 0;
#X connect 40 0 55 0;
#X connect 41 0 9 1;
#X connect 43 0 42 0;
#X connect 43 0 42 1;
#X connect 43 0 42 2;
#X connect 44 0 45 0;
#X connect 45 0 46 0;
#X connect 47 0 48 0;
#X connect 47 0 50 0;
#X connect 48 0 49 0;
#X connect 48 0 53 0;
#X connect 53 0 14 0;
#X connect 54 0 36 0;
#X connect 54 0 43 0;
#X connect 55 0 54 1;
