#N canvas 0 25 737 415 10;
#X obj 86 25 inlet;
#X obj 155 24 inlet;
#X obj 86 63 list prepend;
#X obj 86 369 outlet;
#X obj 103 339 outlet;
#X obj 117 310 outlet;
#X obj 133 283 outlet;
#X obj 86 102 route 0 1 2 3 4 5 6 7;
#X obj 146 256 outlet;
#X obj 161 230 outlet;
#X obj 178 203 outlet;
#X obj 194 176 outlet;
#X obj 209 149 outlet;
#X connect 0 0 2 0;
#X connect 1 0 2 1;
#X connect 2 0 7 0;
#X connect 7 0 3 0;
#X connect 7 1 4 0;
#X connect 7 2 5 0;
#X connect 7 3 6 0;
#X connect 7 4 8 0;
#X connect 7 5 9 0;
#X connect 7 6 10 0;
#X connect 7 7 11 0;
#X connect 7 8 12 0;
